/* XPM */
static char *result[] = {
/* columns rows colors chars-per-pixel */
"64 64 233 2 ",
"   c #000000",
".  c #090705",
"X  c #0C0A06",
"o  c #0F0C08",
"O  c #120D06",
"+  c #110E0A",
"@  c #15120B",
"#  c #1A150C",
"$  c #1B160A",
"%  c #1E1911",
"&  c #1B1710",
"*  c #241C0C",
"=  c #2B1F09",
"-  c #231D13",
";  c #291F10",
":  c #2D220D",
">  c #272116",
",  c #2B2214",
"<  c #2B2419",
"1  c #2F281B",
"2  c #342B1C",
"3  c #352A17",
"4  c #3B321B",
"5  c #36280E",
"6  c #372E20",
"7  c #3C3323",
"8  c #473617",
"9  c #4A3612",
"0  c #413624",
"q  c #453924",
"w  c #4C3D25",
"e  c #453B29",
"r  c #493E2B",
"t  c #503E22",
"y  c #5A451A",
"u  c #7E4E0B",
"i  c #7E510C",
"p  c #674A18",
"a  c #795518",
"s  c #6F511A",
"d  c #4D422D",
"f  c #484220",
"g  c #52442D",
"h  c #58462A",
"j  c #5B492D",
"k  c #564627",
"l  c #544631",
"z  c #564932",
"x  c #5B4C34",
"c  c #5D4F38",
"v  c #5F5037",
"b  c #5D542A",
"n  c #644D28",
"m  c #675328",
"M  c #785A26",
"N  c #624F30",
"B  c #645134",
"V  c #63543A",
"C  c #6B5A3D",
"Z  c #6A5737",
"A  c #755E38",
"S  c #7C6335",
"D  c #7E632D",
"F  c #6E5D40",
"G  c #705E42",
"H  c #746243",
"J  c #7A6645",
"K  c #7D6A49",
"L  c #7A6748",
"P  c #83530E",
"I  c #8A530D",
"U  c #935A0F",
"Y  c #8B5610",
"T  c #8C5A13",
"R  c #865712",
"E  c #935D13",
"W  c #9A5E11",
"Q  c #844E0C",
"!  c #9B6313",
"~  c #94631A",
"^  c #9A661A",
"/  c #9C6A1D",
"(  c #976315",
")  c #916116",
"_  c #A46D1C",
"`  c #A56B15",
"'  c #AB721D",
"]  c #A9741A",
"[  c #B3781B",
"{  c #856629",
"}  c #9B6C22",
"|  c #906F2D",
" . c #9D7024",
".. c #846939",
"X. c #957939",
"o. c #8F7233",
"O. c #A37324",
"+. c #AA7523",
"@. c #A3752B",
"#. c #A5792C",
"$. c #AC7C2C",
"%. c #A97B26",
"&. c #B27D2B",
"*. c #B77C22",
"=. c #A57932",
"-. c #A97D33",
";. c #A57A33",
":. c #A67327",
">. c #805C24",
",. c #836A42",
"<. c #826D4B",
"1. c #86714E",
"2. c #8C734A",
"3. c #8E7144",
"4. c #96794A",
"5. c #8C7651",
"6. c #8F7955",
"7. c #947C55",
"8. c #9A7E53",
"9. c #A17E44",
"0. c #BC821E",
"q. c #B4812E",
"w. c #BA8628",
"e. c #AD8333",
"r. c #AE833A",
"t. c #A6873D",
"y. c #B48432",
"u. c #BB8B35",
"i. c #B3863B",
"p. c #B48A3C",
"a. c #BB8C3B",
"s. c #B78933",
"d. c #BC923B",
"f. c #AC832F",
"g. c #C38B23",
"h. c #C38925",
"j. c #CC942B",
"k. c #CE9B2A",
"l. c #C99526",
"z. c #D29D2C",
"x. c #C3943D",
"c. c #C69536",
"v. c #C69335",
"b. c #D9A633",
"n. c #CFA236",
"m. c #E1B03A",
"M. c #9B8257",
"N. c #9E814F",
"B. c #A5844D",
"V. c #B48B42",
"C. c #B98E43",
"Z. c #B68A44",
"A. c #BD9344",
"S. c #BE934B",
"D. c #B89746",
"F. c #A68858",
"G. c #B8945A",
"H. c #B08F4B",
"J. c #A98E62",
"K. c #AD9164",
"L. c #BB9C6B",
"P. c #B69867",
"I. c #BEA071",
"U. c #C19543",
"Y. c #C49B44",
"T. c #CA9C44",
"R. c #C1964B",
"E. c #C59A4A",
"W. c #C99D4D",
"Q. c #C59B53",
"!. c #C59A56",
"~. c #D09F42",
"^. c #CDA24A",
"/. c #CCA346",
"(. c #D2A74A",
"). c #CDA453",
"_. c #CDA35A",
"`. c #CDAC58",
"'. c #D3AB52",
"]. c #D3AC5B",
"[. c #D6AB54",
"{. c #DBB254",
"}. c #DBB45B",
"|. c #D6B25A",
" X c #CFB05A",
".X c #E4BC5E",
"XX c #C49F65",
"oX c #C9A367",
"OX c #D3AB6B",
"+X c #D9AE68",
"@X c #D6AA64",
"#X c #DAB461",
"$X c #DBB668",
"%X c #C9A874",
"&X c #DCB474",
"*X c #D8B479",
"=X c #D1AD75",
"-X c #E2BD63",
";X c #E1BB6C",
":X c #E4BA77",
">X c #DEC168",
",X c #E4C36A",
"<X c #E9C66A",
"1X c #EBCC74",
"2X c #EBCD7A",
"3X c #E9C476",
"4X c #EED37C",
"5X c #EDD075",
"6X c #F2D376",
"7X c #F2D57C",
"8X c #F8DB7D",
"9X c #D7B682",
"0X c #E1BE82",
"qX c #EAC585",
"wX c #F6CC87",
"eX c #F5DC84",
"rX c #F5DD8B",
"tX c #F8D887",
"yX c #FED591",
"uX c #FFDB95",
"iX c #FDDB98",
"pX c #EFD681",
"aX c #FAE28D",
"sX c #FBE38A",
"dX c #FCE593",
"fX c #FFE39B",
"gX c #FEEB97",
"hX c #FFE6A1",
"jX c #FFEBA5",
"kX c #FFEBA9",
"lX c #FFF2AC",
"zX c #FFFBB5",
"xX c None",
/* pixels */
"xXxXxXxXxXxXxXxXxXxXxXxXxXxXxXxXxXxXxXxXxXxXxXxXxXxX7X;X#X`._.).).).'.@X$X2XxXxXxXxXxXxXxXxXxXxXxXxXxXxXxXxXxXxXxXxXxXxXxXxXxXxX",
"xXxXxXxXxXxXxXxXxXxXxXxXxXxXxXxXxXxXxXxXxXxXtX,X@XA.p.r.-.=.=.X.@.=.X.=.e.r.V._.$XwXxXxXxXxXxXxXxXxXxXxXxXxXxXxXxXxXxXxXxXxXxXxX",
"xXxXxXxXxXxXxXxXxXxXxXxXxXxXxXxXxXxXxXxX2X-X).W.A.C.i.r.e.=.e.$.@.;.=.e.;.r.r.i.p.D._.3XxXxXxXxXxXxXxXxXxXxXxXxXxXxXxXxXxXxXxXxX",
"xXxXxXxXxXxXxXxXxXxXxXxXxXxXxXxXxXdX7X,X}.|.).W.E.A.S.r.r.-.s.X.;.;.=.p.r.r.r.V.C.D.S.W.).3XrXxXxXxXxXxXxXxXxXxXxXxXxXxXxXxXxXxX",
"xXxXxXxXxXxXxXxXxXxXxXxXxXxXxXxXsX5X<X>X}.].].).W.p.p.p.r.e.e.=.#.e.-.-.r.i.i.Z.S.Y.E.W.).].|.4XxXxXxXxXxXxXxXxXxXxXxXxXxXxXxXxX",
"xXxXxXxXxXxXxXxXxXxXxXxXxXxXdXeX7X4X1X3X$Xd.|.].).E.A./.(.Y.d.H.H.D.Y./.A.p.C.C.U.p.Q.).]. X#X#X,XrXxXxXxXxXxXxXxXxXxXxXxXxXxXxX",
"xXxXxXxXxXxXxXxXxXxXxXxXxXaXsX8X5X3XpX1X1X,X#X}.'.X.m 4 X             X 3 m | d./.T.).].].].'.,X,X3XpXxXxXxXxXxXxXxXxXxXxXxXxXxX",
"xXxXxXxXxXxXxXxXxXxXxXdXsXsXsXrX>X`.rX7X6X,Xt.4                                 5 { T.].#X#XD.$X3X1X2XpXfXxXxXxXxXxXxXxXxXxXxXxX",
"xXxXxXxXxXxXxXxXxXxXaXsX8XsXsXdXdXdXsX<XS O                 6 X   >   .             X s T.-X,X3X1X4X4XpXrXfXxXxXxXxXxXxXxXxXxXxX",
"xXxXxXxXxXxXxXxXxXdX8X8X6X,XdXgXgX8Xt.X             V c     L M.@ C . G . > l           o a .X2X2X1X XpXrXaXgXxXxXxXxXxXxXxXxXxX",
"xXxXxXxXxXxXxXxXaX6X8XeX4X XdXgX>X3         v v     K L d   J o M.5.. 7.J.e                 : A.4X2X XrXrXrXaXdXxXxXxXxXxXxXxXxX",
"xXxXxXxXxXxXxXaX6X6X6XeXaXdXdXD.O       v K < M.o & K.V K > x   . K.  J l d         L z       . o.7XaXrXrXrXrXaXgXxXxXxXxXxXxXxX",
"xXxXxXxXxXxXxX6X<X<X1XrXaXsXX.          <.V <.7 <.7 @                     d &     x 1 1 <.%       M 8XaXrX$XpXeXdXxXxXxXxXxXxXxX",
"xXxXxXxXxXxX6X.X<X X`.8X8Xo.            < H V <.%                                 M.    . d         m eXsX X2XsX4XeXxXxXxXxXxXxX",
"xXxXxXxXxXsX.X.X<X5X7X8XX.      V 6       C >                 x x                 - 5.7 &   d V       M eXeXeX7X5X<XeXxXxXxXxXxX",
"xXxXxXxXxX.X{.}.>X5X6XD.      J 2 1.l             g     o 4 z *X9XV q +     8         r > d l < H       t.sX7X1X,X.X$XxXxXxXxXxX",
"xXxXxXxX1X{.[.[.,X<X}.O     V 1 J > 5.          X +X3.H.!.8.2.=XP.J.%X0XXX3.R..           5..   1 x     O ).5X,X(.|.'.,XxXxXxXxX",
"xXxXxXrX{.[.'.x.}.,Xf       > K X 6.@         # 4.XXZ =       8.c   .   ; Z S...@         @ 5.. J >       4 .X}.d.(./.T.pXxXxXxX",
"xXxXxX<X(.'.'.}..Xt.      L > > 6.@         B OXB +   X 2 - - C P.> r < - 6 A 3.XXN         @ 1.< - J       o.}.'././.x.|.xXxXxX",
"xXxXxX[.(.(.'.|.}.*     %   C x       H Z F.P.&   g 1 F F.OX%XiXlXiX9X%X<.r A 2 & XXJ.G L       d F   -     $ (.(./.U.x.U.xXxXxX",
"xXxX3X~.^.T.'.'.o.    z < g   o       Z wX7.  - 6 L 0XyX*XL.7.6.kXJ.K V yX:X,.    6 9XhXF       + % L L..     { ~.x.Y.U.a.$XxXxX",
"xXxX}.~.Y.d.(.[.*   . L x 1 1.        F.8.  X l P.yXiXiXXXH 6.6 9Xe 6.6 P.G.OXF.2 <.<.I.P.        r . K       * (.x.y.u.u.E.xXxX",
"xXtX(.T.T.T.^.t.    x d K v <       V L.@ - z K.P.hXkXyXe L hXP.1 . . 7 ,.B.w !.OXC <   =XV         + F - 6     ;.x.x.u.a.u.2XxX",
"xX<Xx.T.Y.T.T.b       v 6.<.      # &X#   V =XK.iXhXkXkX6.kXzXzXF e 7 z C w ..!.$X&X#   & qX#       l J.c       n x.v.u.u.u.#XxX",
"xX}.x.T.x.x.(.@         . o     o 8.C   6 %XfXhXhXjXlXzXkXzXkX9X+ .   - J...Q.!.@Xx P.- C P.4.+     + .         O ~.v.s.u.u.W.xX",
"xX(.v.x.A.d.p.                w ;XoX. - 5.wXhXjXjXjXlXlXzXzXkXP.z .     B G.!.B.B.g wX4.<.j oX+Xw                 r.u.u.s.s.x.xX",
"wXx.u.-.y.s.D     @ & H         8.A   1 K.yXfXjXjXjXhXjXkXiX6 7 . . .   0 G...3.B 4.=X3X&   A 3.        F # @     D w.q.q.u.q.2X",
"1Xv.s.q.q.s.b     . *XwXx       G.; 2 1.V fXfXhXfXuXuXyX%X+   6 . .     n +X; 0 - j 6.yXx   2 G.      l qX*Xo     k q.q.&.q.y.;X",
"-Xq.$.$.$.q.4     @ 5.K.      X XX  < P.F yXiXyX=X&XoX2XJ 4 7 F r 0 0 7 w G.!.+X3.:XwXuXL.K 4.&Xo       J.1.@     3 &.&.&.&.y.+X",
"}.+.+.@.O.u.>         & X @   2 8.  - J.c %XyXC     2 B.      2 .       w &X+X&X:XwXyXfXwXB d P.2       @     @   * w.+.s.y.$._.",
"(.^ @.f.( s.o           , f   k B.r z M.  =XqX@     , *       2 .       4.:X:X:X3XyXuXfXhXX . 2.g             d @ X &./ O.} O.W.",
"U.P P P P e.    L v K M.1   x &X%XK.<.F.7 F.&X8 N , k , 3 3 2 N q 7 0 0 XX6X:X:XwXyXfXhXfX6.2.F.OXz X =X<.V V       +.Y Y T T D.",
"d.i i i i f.X   L c <.M.L   x qXI.7.J.J   q F.!...  :         1 .       P.wXwXwXyXuXiXfXiXd 4 4.OXl . %X1.V F.    . / i u u i p.",
"A.i i i i f.@                 V P.; q ,.  3   = 9.; ;         1 .         XXyXuXuXiXiXfXyX#   ..g                 O ( u P i i t.",
"/.i R  .i } ,         -       7 P.  - ..  ;     n ..: 3 Z n # 2 .         e @ + . yXiXuX&X    4.2       % .       * T u e.) i V.",
"^.P )  .i R f     6 7.6.<     o *X  @ M 3 , t , , M 4.R.!._.+X8.B 7 7 0 0 F 0 0 q 0XuXyXF.7 . oX.     > 1.6.7     8 P u R i i D.",
"|.T P P I P m       0X*X&       G.; O t ,   ,       ..R.R.!._.OX@X0       0       8.wXwXC j ,.G.      @ %X0X.   . 9 u i i P i E.",
"1XE R T Y I D     @ 6 c         M.Z   * p   * X   $ Q.Q.S.R.R.!.!.$XG.r @ <     + XX3XOX    5.F.        x 1 @     s P P i a a  X",
"xX_ T T T T @.                v wXoX  X p 3   3   O B.!.R.Z.Z.Z.S.!.@X,.7       0 ,.;XB   X :XiXv                 ! a ) R R ) xX",
"xXa.~ O.f.T _ :       % 1.-     X 4.j = * A O @ -   # !.!.Z.i.i.-.Z.9.X 6     < & N 9.h w A F.X     & x H H @   = ! )  . .R #.xX",
"xX'.^ E E E E m     C z 1 K       $ G.$   3 9.7 j g 4 j B.R.Z.9.-.9.X.q q 2 w x 0 B.# @ k @X#       7 C K       p E E ) ) T H.xX",
"xX,X_ ^ ^ ~ W '     z ; L V -       k 8.  ; q F.+ 6 &   j !.S.Z.;.>.$ 5   - 2 + 8.q     4.g           F V       _ / ^ } } } _.xX",
"xXxXu._ ^ ! ^ _ 9     H F e 6         ..2.    q F.w , 1 + !.!.S.;.: * . ; ; q 8.3 N 3 ,...        l 2   F     9 O.O.O.O.O.e.xXxX",
"xXxX'.' ' &.+._ /     7 V 7 <.+       h +X3.  q X ,.8.2.B G.@XQ.n 5 9 8 m 3.,.    0 G.+Xj       q l d H .     } O.y.p.$.-.E.xXxX",
"xXxXxX*.+.+.+.' *.9     d d L 6.-     N h 4.F.@ ; C @ C B.P.&X!.n { M M 8 . N 1 # G.2.x C     < C   < @     9 &.$.$.#.y.u.xXxXxX",
"xXxXxX(.*.' [ +.*.+.      L % > 1.@         j oX3.g   C 7   $ Z t X   8 -   w 4.OXj           1.    F @   X &.&.i.i.s.a.E.xXxXxX",
"xXxXxX,Xw.*.*.*.0.h.s     d q L < H .         $ 4.&X8.7.      Z Z     8 k Z !.4.@           z K 1 7 r     M y.p.p.a.a.A.).xXxXxX",
"xXxXxXxX(.h.h.h.v.j.j.5     V l <.V <.          + wXJ.=XqX%XJ.K.J.3.8.!.9...+XX             < V x x     9 u.a.d.U.a.A.^.xXxXxXxX",
"xXxXxXxXxXj.g.w.w.k.z.v.*     2 7 l K   +         z     X 7 x :X*Xg 2 X     d         1 @     C @     * s.a.C.i.p.U.E.xXxXxXxXxX",
"xXxXxXxXxX{.j.j.k.z.b.m.q.O     7   K & J x @                 x z                 > K V <.. 7 V     $ y.u.A.A.U.A.E.^.xXxXxXxXxX",
"xXxXxXxXxXxX(.k.z.z.b.m.m.s.O       H 1.v z 7.L 2                             o K x   V 2 K g     $ $.u.A.A.A.E.E.E.xXxXxXxXxXxX",
"xXxXxXxXxXxXxXn.k.z.c.n.b.m.u.*     - - F K L 1 d x L e o             X e H r L K     6 z       : &.a.A.A.Y.S.E.E.xXxXxXxXxXxXxX",
"xXxXxXxXxXxXxX{.z.z.w.k.b.b.b.n.9       X l   g v J > 2 V C L H L 2   M.1 - z V 7 V J d       9 q.a.C.A.a.V.S.E.Y.xXxXxXxXxXxXxX",
"xXxXxXxXxXxXxXxX{.z.z.z.b.b.z.b.b.{ O             J l H F v L C H g   K H g @ @ d 0 .     O { q.p.p.C.C.D.E.E.x.xXxXxXxXxXxXxXxX",
"xXxXxXxXxXxXxXxXxX(.k.k.k.k.n.z.z.z.v.k           v F F 6 V X & 1.&   l %               p &.#.y.i.Y.A.A.S.E.d.xXxXxXxXxXxXxXxXxX",
"xXxXxXxXxXxXxXxXxXxXn.k.k.l.w.k.k.j.g.j.s.m O           o %     X -               O y +.+.-.-.r.i.-.p.D.A.d.xXxXxXxXxXxXxXxXxXxX",
"xXxXxXxXxXxXxXxXxXxXxX/.k.l.l.l.g.g.g.g.0.0.v.o.k X                         X 9 a +._ @.#.y.r.i.p.C.A.A.u.xXxXxXxXxXxXxXxXxXxXxX",
"xXxXxXxXxXxXxXxXxXxXxXxXxXk.l.0.g.g.u.0.[ ] ' ` ' s.=.{ m y 8 5 3 8 9 p a ( _ ! / } @.@.#.e.e.r.p.p.p.xXxXxXxXxXxXxXxXxXxXxXxXxX",
"xXxXxXxXxXxXxXxXxXxXxXxXxXxXl.w.0.0.[ [ [ ] [ _ ! W U U T I W ) E E I Y T T ( ^ / $.@.@.#.-.-.i.p.y.xXxXxXxXxXxXxXxXxXxXxXxXxXxX",
"xXxXxXxXxXxXxXxXxXxXxXxXxXxXxXxXw.[ [ [ [ ` %.] ! W U ! I I I P P I I T ~ } ~ ~ } e.} @.#.-.-.s.xXxXxXxXxXxXxXxXxXxXxXxXxXxXxXxX",
"xXxXxXxXxXxXxXxXxXxXxXxXxXxXxXxXxXw.w.] ` ` ` ! W U ! e.I I Q ( %.I I T #.O.~ ^ } }  .@.#.$.f.xXxXxXxXxXxXxXxXxXxXxXxXxXxXxXxXxX",
"xXxXxXxXxXxXxXxXxXxXxXxXxXxXxXxXxXxXxXxX[ ` ! ! W U U I I I I I T I Y T T ) ) } }  .@.%.xXxXxXxXxXxXxXxXxXxXxXxXxXxXxXxXxXxXxXxX",
"xXxXxXxXxXxXxXxXxXxXxXxXxXxXxXxXxXxXxXxXxXxX[ _ ` U U I I Q P P I Y T T T ( ~ } _ ] xXxXxXxXxXxXxXxXxXxXxXxXxXxXxXxXxXxXxXxXxXxX",
"xXxXxXxXxXxXxXxXxXxXxXxXxXxXxXxXxXxXxXxXxXxXxXxXxXxX_ ` ! ! W U W ( ( ! ` _ xXxXxXxXxXxXxXxXxXxXxXxXxXxXxXxXxXxXxXxXxXxXxXxXxXxX"
};
