/* XPM */
static char *result[] = {
/* columns rows colors chars-per-pixel */
"32 32 198 2 ",
"   c #020201",
".  c #080705",
"X  c #0A0906",
"o  c #0E0C08",
"O  c #120E09",
"+  c #1C1407",
"@  c #15110B",
"#  c #1A150D",
"$  c #1E190C",
"%  c #1B1710",
"&  c #1E1911",
"*  c #231C0D",
"=  c #231D13",
"-  c #25200F",
";  c #2B210D",
":  c #36270D",
">  c #262116",
",  c #2A2315",
"<  c #2C2519",
"1  c #3C2E12",
"2  c #332B1D",
"3  c #372B18",
"4  c #3A301B",
"5  c #372E20",
"6  c #382F21",
"7  c #3B3222",
"8  c #432F0E",
"9  c #4C391B",
"0  c #483818",
"q  c #503D1F",
"w  c #573A0C",
"e  c #423725",
"r  c #433826",
"t  c #4C3E20",
"y  c #463B29",
"u  c #493D2A",
"i  c #4E411E",
"p  c #5A4319",
"a  c #7F510D",
"s  c #644617",
"d  c #69501C",
"f  c #72521E",
"g  c #4E422D",
"h  c #5B4A2D",
"j  c #554528",
"k  c #534631",
"l  c #564832",
"z  c #5C4D33",
"x  c #5E5037",
"c  c #644D25",
"v  c #68532B",
"b  c #625236",
"n  c #695534",
"m  c #63543A",
"M  c #6B5A3D",
"N  c #725D3B",
"B  c #725B36",
"V  c #7B633D",
"C  c #7C6137",
"Z  c #6D5C40",
"A  c #7E6845",
"S  c #796546",
"D  c #804F0C",
"F  c #8B550E",
"G  c #88560E",
"H  c #905A0F",
"J  c #8C5711",
"K  c #8B5C14",
"L  c #945E12",
"P  c #8F6219",
"I  c #956017",
"U  c #9C6414",
"Y  c #94641B",
"T  c #9A6619",
"R  c #9A6A1D",
"E  c #93681C",
"W  c #A36D1E",
"Q  c #A96F17",
"!  c #AE731C",
"~  c #B47A1D",
"^  c #976E26",
"/  c #9A6C24",
"(  c #9D7229",
")  c #846937",
"_  c #987633",
"`  c #A37426",
"'  c #AA7624",
"]  c #AC7C2B",
"[  c #A4762C",
"{  c #A47B32",
"}  c #AB7E32",
"|  c #B47C2A",
" . c #836A43",
".. c #846E4B",
"X. c #8A6F43",
"o. c #8C7145",
"O. c #8A724C",
"+. c #927545",
"@. c #97794A",
"#. c #826E51",
"$. c #8C7651",
"%. c #937B55",
"&. c #9A7F54",
"*. c #BB841E",
"=. c #B8832B",
"-. c #AC8134",
";. c #A4853E",
":. c #AD8539",
">. c #B38332",
",. c #BA8A35",
"<. c #B4873B",
"1. c #B5893C",
"2. c #BB8D3B",
"3. c #BD903A",
"4. c #C38D2A",
"5. c #C38B23",
"6. c #CD9B2A",
"7. c #C8942A",
"8. c #D19C2B",
"9. c #C3953E",
"0. c #D59F33",
"q. c #D5A433",
"w. c #D2A33A",
"e. c #9E8255",
"r. c #9A8158",
"t. c #97805C",
"y. c #A38849",
"u. c #B68D44",
"i. c #B98E44",
"p. c #B38945",
"a. c #BC9243",
"s. c #BC904A",
"d. c #A1865C",
"f. c #A5895E",
"g. c #A98A57",
"h. c #AF9266",
"j. c #BB9D6F",
"k. c #B89762",
"l. c #BBA072",
"z. c #C29542",
"x. c #C59945",
"c. c #CB9B43",
"v. c #C2964C",
"b. c #C3994A",
"n. c #C89D49",
"m. c #C69C52",
"M. c #C69B56",
"N. c #CEA74E",
"B. c #D2A64A",
"V. c #CDA454",
"C. c #CBA559",
"Z. c #D2A751",
"A. c #D2AB53",
"S. c #D3AC5A",
"D. c #D8AE55",
"F. c #D5B15D",
"G. c #DFB65C",
"H. c #D6B057",
"J. c #E2BA5D",
"K. c #D5AC6B",
"L. c #DEBA66",
"P. c #DBBB6A",
"I. c #D4B96D",
"U. c #C8A874",
"Y. c #D2AE74",
"T. c #D3AF73",
"R. c #E9BD77",
"E. c #DFC26B",
"W. c #DFC470",
"Q. c #E5C266",
"!. c #E5C56C",
"~. c #E9C66F",
"^. c #E7C86E",
"/. c #E4C772",
"(. c #ECCD74",
"). c #ECCD78",
"_. c #E8C877",
"`. c #ECD37F",
"'. c #F2D57B",
"]. c #F5D97E",
"[. c #ECD381",
"{. c #F1D682",
"}. c #F3DA84",
"|. c #F9DF84",
" X c #F6DF8C",
".X c #FED28B",
"XX c #FCD391",
"oX c #FFDA94",
"OX c #FFDC9D",
"+X c #F0C98B",
"@X c #FAE28C",
"#X c #FFE29D",
"$X c #FCE692",
"%X c #FFE6A0",
"&X c #FFEAA4",
"*X c #FFF4AF",
"=X c #FFFAB6",
"-X c None",
/* pixels */
"-X-X-X-X-X-X-X-X-X-X-X-XS.m.a.u.u.u.s.C.-X-X-X-X-X-X-X-X-X-X-X-X",
"-X-X-X-X-X-X-X-X-X).L.V.a.1.-.-.{ -.:.1.u.V.P.-X-X-X-X-X-X-X-X-X",
"-X-X-X-X-X-X-X@X'.^.S.S.b.3.a.:.:.3.1.u.a.V.A.L.[.-X-X-X-X-X-X-X",
"-X-X-X-X-X-X@X|.Q.`.^.y.h -         - i _ B.K.F./.{.-X-X-X-X-X-X",
"-X-X-X-X-X|.'.$X$Xy.-     2   k , & X @   + ) ~.)._. X-X-X-X-X-X",
"-X-X-X-X'.].`.`.t   5 x . ..7 6 S g b     5   1 P.[. X@X-X-X-X-X",
"-X-X-X(.Q._.!.-     x M 5           O . 7 % 7   + I._.}.|.-X-X-X",
"-X-X(.G.^.!.- & k @ % X @   O b m @   O . y = g % $ /.'.!.).-X-X",
"-X-XG.N.Q.i   g g >   . o.B h A Z Z V C .   > > g   0 Q.N.A.-X-X",
"-XQ.A.H.y.  = r > & r  .2 , N r.l.#.u n A u & = r >   _ N.z.F.-X",
"-XG.c.A., 4 7 >   y O.& t.XXh.S j.Z T.) 7 U.u   % Z   ; 9.9.x.-X",
"-X9.c.;.  y A X   ..< r.XX%Xt.OX7 2 V @.k.@ $..   x <   { 2.,.-X",
"J.9.3.v       @ @.> t.%X&X*X=X+X% . +.M.o.%. .@.O .     c ,.,.V.",
"Z.>.>.1 . %.#   V 7 U.%X#XOXl.<     X.h h T.$ V   O %.X 1 =.>.n.",
"c.] | #   k . O h M f.R.M d., 2 = = o.K.K.XXf.d.o   g X O | >.z.",
"] E (   4 u , x &...M O.* 3 + 2 = + U.R..X#Xh.N z 2 7 < X W Y } ",
"( a E . 5 y % Z $.S % v q @   %     e..XoX#Xr.j z 2 7 > . K D ^ ",
"[ P K % o k . @ b t * * c v @.N , & 7 > O.oXN h O . g o @ D E ^ ",
"} J G 1   %.    N * * + . p.v.M.g.7 =   b R.3 &.    $.. ; a a ( ",
"2.Y Y p   . < % &.= q @ o +.s.<.s.) & . u o.3 f.# & 7 . w P P { ",
"-XT I Y   u Z   . B # B 7 , y.i._ 9 = e N X  ..   y 5   P Y E -X",
"-X>.W W : 2 k 2   3 ) = z b V M.p : q l 3 +.3   7 7 & : ' ] >.-X",
"-Xn.! ! L   y k 2 # 6 N h 4 n X.q 9 + h  .6 # < % 2   ^ -.>.x.-X",
"-X-X4.5.4.s O z b =   . e.h.M Z m n ) o..     l y O s ,.2.z.-X-X",
"-X-XB.7.7.0.1 o 2 u 5 . #   O m x o   @ X y > r . 3 ,.i.a.N.-X-X",
"-X-X-Xw.8.q.q.1   g M M 5 <         2 5 l = r @ 1 1.a.x.b.-X-X-X",
"-X-X-X-Xq.6.q.q.d   # # k u m S z y y 5 g 2 . s <.a.a.b.-X-X-X-X",
"-X-X-X-X-X6.6.7.6.] 0   # 5 2 X 5 @ .     8 / } 1.i.z.-X-X-X-X-X",
"-X-X-X-X-X-X7.7.5.=.~ ' f 0 ; * # ; 8 s R ` } <.1.2.-X-X-X-X-X-X",
"-X-X-X-X-X-X-X4.*.~ ! ! L L F F J J L T ` [ [ -.<.-X-X-X-X-X-X-X",
"-X-X-X-X-X-X-X-X-X~ Q U L U F J L K / Y / ` ] -X-X-X-X-X-X-X-X-X",
"-X-X-X-X-X-X-X-X-X-X-X-XQ L H H K L U T -X-X-X-X-X-X-X-X-X-X-X-X"
};
