/* XPM */
static char *result[] = {
/* columns rows colors chars-per-pixel */
"16 16 201 2 ",
"   c #0B0905",
".  c #0A0906",
"X  c #0C0906",
"o  c #0C0B07",
"O  c #0F0D09",
"+  c #120F0A",
"@  c #13100B",
"#  c #151109",
"$  c #15110B",
"%  c #16130B",
"&  c #1A160F",
"*  c #1E170C",
"=  c #1D1810",
"-  c #1E1810",
";  c #1E1911",
":  c #1F1A11",
">  c #1F1A12",
",  c #1F1B12",
"<  c #231C0F",
"1  c #281E0E",
"2  c #211B13",
"3  c #211C13",
"4  c #221C14",
"5  c #251F15",
"6  c #272016",
"7  c #272116",
"8  c #292215",
"9  c #282117",
"0  c #282216",
"q  c #292216",
"w  c #2A2316",
"e  c #2C2215",
"r  c #2D2415",
"t  c #2C2417",
"y  c #2E2517",
"u  c #282218",
"i  c #292218",
"p  c #2B2318",
"a  c #2B2419",
"s  c #2C261A",
"d  c #2E271B",
"f  c #2E2819",
"g  c #2F281B",
"h  c #312716",
"j  c #312817",
"k  c #302719",
"l  c #30281B",
"z  c #332A1B",
"x  c #30281C",
"c  c #30291C",
"v  c #332A1C",
"b  c #322A1D",
"n  c #332B1D",
"m  c #332A1E",
"M  c #342B1C",
"N  c #342C1F",
"B  c #352D1F",
"V  c #372E20",
"C  c #3B3122",
"Z  c #3B3123",
"A  c #3B3222",
"S  c #3B3223",
"D  c #3D3323",
"F  c #4C310A",
"G  c #593A0D",
"H  c #5A3A0E",
"J  c #4E3A17",
"K  c #503910",
"L  c #433721",
"P  c #413726",
"I  c #423826",
"U  c #483A22",
"Y  c #4E3C20",
"T  c #4B3C25",
"R  c #4A3D27",
"E  c #453A29",
"W  c #463B28",
"Q  c #5A4316",
"!  c #5D4015",
"~  c #564218",
"^  c #5A461E",
"/  c #5B471F",
"(  c #5D451E",
")  c #67430E",
"_  c #6C4B14",
"`  c #6F4D17",
"'  c #6C4E1D",
"]  c #6C4F1E",
"[  c #744D14",
"{  c #7B5216",
"}  c #7A5A1D",
"|  c #4B4024",
" . c #564325",
".. c #524727",
"X. c #514129",
"o. c #574629",
"O. c #5C4728",
"+. c #58462C",
"@. c #5A482D",
"#. c #5D4B2F",
"$. c #5D4D34",
"%. c #614D2E",
"&. c #6C582D",
"*. c #715D2E",
"=. c #795E29",
"-. c #6B5737",
";. c #6C5734",
":. c #65553C",
">. c #695738",
",. c #6F5B3A",
"<. c #6E5A3B",
"1. c #745E3D",
"2. c #756231",
"3. c #766141",
"4. c #786340",
"5. c #786341",
"6. c #786443",
"7. c #7B6C40",
"8. c #8D570E",
"9. c #905C12",
"0. c #8F631C",
"q. c #986113",
"w. c #90641E",
"e. c #95671D",
"r. c #98671B",
"t. c #9C671B",
"y. c #A56C16",
"u. c #AE771F",
"i. c #836026",
"p. c #85662A",
"a. c #80662F",
"s. c #9D6D22",
"d. c #9D6D23",
"f. c #8A6D3D",
"g. c #A07023",
"h. c #A07025",
"j. c #A87B2E",
"k. c #AC7D2E",
"l. c #B67E25",
"z. c #AC7D30",
"x. c #806A47",
"c. c #8F7242",
"v. c #897047",
"b. c #95794F",
"n. c #997B4D",
"m. c #867150",
"M. c #997F55",
"N. c #BB8320",
"B. c #B1802F",
"V. c #AC8033",
"C. c #AF853B",
"Z. c #B2873C",
"A. c #B7893A",
"S. c #B68B3C",
"D. c #B78C3E",
"F. c #BA8E3A",
"G. c #C69327",
"H. c #CF9E2F",
"J. c #D09E2E",
"K. c #CE9C36",
"L. c #C0923E",
"P. c #D19D30",
"I. c #9E8358",
"U. c #A68247",
"Y. c #B78E44",
"T. c #BC9141",
"R. c #BA9346",
"E. c #BF9645",
"W. c #BE924D",
"Q. c #B29668",
"!. c #BDA073",
"~. c #C29945",
"^. c #C39947",
"/. c #C79B47",
"(. c #C99B44",
"). c #C19749",
"_. c #CCA34B",
"`. c #C9A255",
"'. c #CCA958",
"]. c #D6AC53",
"[. c #D7AC54",
"{. c #D6B15E",
"}. c #C59F63",
"|. c #DAB460",
" X c #E5C76D",
".X c #EAC56A",
"XX c #E5CA75",
"oX c #EACD76",
"OX c #ECCE7B",
"+X c #EED077",
"@X c #EAD079",
"#X c #F7DA7F",
"$X c #E3BE84",
"%X c #E9C284",
"&X c #E8C386",
"*X c #F8CD89",
"=X c #F0D883",
"-X c #F6DF8D",
";X c #FAE189",
":X c #FFE9A3",
">X c None",
/* pixels */
">X>X>X>X>X|.).Z.C.Y.`.>X>X>X>X>X",
">X>X>X;XoX'.a./ ^ =.R.{.OX>X>X>X",
">X>X#X=X7.f g n P 3 # &.XX-X>X>X",
">X.X X..& A $ - :   u a | @X+X>X",
">X].2.d g z +.5.m.;.v 5 s *._.>X",
"[.~.q S M $.&XQ.:.n.3.V C % F./.",
"(.p.7 o #.$X:X!.. c.b.-.X 6 i.L.",
"k.Q B 8 6.I.@.t 2 }.*XM.w x ! z.",
"e.K V i <.h Y U @ x.%X,.p c F 0.",
"d._ 9 + o.1  .W.f.+ v.>.O N ) w.",
"B.t.r D e T R U.( L X.j l < s.j.",
">Xl.` I n y 4.1.O.%.k 0 i ] A.>X",
">XK.P.~ b E , > = ; m x J T.^.>X",
">X>XH.J.} * Z W S 4 h ' D.E.>X>X",
">X>X>XG.N.u.{ H G [ h.V.S.>X>X>X",
">X>X>X>X>Xy.q.8.9.r.g.>X>X>X>X>X"
};
